<svg version="1.0" xmlns="http://www.w3.org/2000/svg" width="932px" height="268px" viewBox="0 0 932 268" preserveAspectRatio="xMidYMid meet">
 <g fill="#000000">
  <path d="M351.5 242.3 c-25 -3.1 -42.2 -14.2 -51.9 -33.6 -5.2 -10.4 -9.2 -24.6 -10.6 -38.2 -0.5 -4.9 -1 -39.3 -1 -76.2 l0 -67.3 15.4 0 15.5 0 0.4 71.8 c0.4 79.5 0.4 79.4 7.1 93.8 5.5 11.6 13.7 18 26.6 20.4 22.7 4.3 42.2 -4.7 49 -22.7 5 -13.3 5.3 -18 5.7 -93 l0.5 -70.3 15.4 0 15.5 0 -0.3 72.2 c-0.4 69.9 -0.4 72.6 -2.5 81.8 -7 30.6 -20.1 48.4 -41.6 56.5 -11.5 4.3 -30.4 6.4 -43.2 4.8z"/>
  <path d="M88 133.4 l0 -106.7 32.3 0.6 c37 0.6 45.1 1.8 59.1 8.5 18.3 8.8 28.2 23.6 30.6 45.7 2.8 24.7 -4.5 47.6 -19.6 61.4 -11.7 10.8 -26.7 15.6 -53.1 17.4 l-17.3 1.1 0 39.3 0 39.3 -16 0 -16 0 0 -106.6z m62.5 -1.9 c12.6 -3.3 21.4 -10.7 25.7 -21.4 1.8 -4.6 2.2 -7.6 2.3 -17.1 0 -11 -0.1 -11.8 -3.2 -18.1 -7.4 -15.1 -20.3 -20.9 -46.4 -20.9 l-8.9 0 0 39.5 0 39.5 12.3 0 c7.8 0 14.4 -0.6 18.2 -1.5z"/>
  <path d="M528 133.4 l0 -106.6 32.3 0.5 c23.8 0.3 34.5 0.9 41.2 2.1 27 5 43.5 15.6 52.4 33.8 4.5 9.2 6.1 16.9 6.1 29.3 -0.1 25.2 -12.4 46.1 -33.7 56.9 -2.9 1.4 -5.3 3.1 -5.3 3.7 0 0.6 5.9 11.3 13.2 23.7 7.2 12.5 18.4 31.8 24.9 43 l11.7 20.2 -18.1 0 -18.2 -0.1 -21.4 -40.4 -21.4 -40.5 -16.4 0 -16.3 0 0 40.5 0 40.5 -15.5 0 -15.5 0 0 -106.6z m76 -2.2 c18.5 -7.4 26.8 -20.9 25.8 -42.2 -0.8 -14.6 -6.1 -23.6 -17.6 -29.4 -9 -4.6 -15.6 -5.8 -34.9 -6.3 l-18.3 -0.5 0 40.7 0 40.7 19.8 -0.4 c17.3 -0.4 20.4 -0.7 25.2 -2.6z"/>
  <path d="M751 133.5 l0 -106.5 46.3 0 46.2 0 0 13.5 0 13.5 -30.7 0 -30.8 0 0 30.5 0 30.5 24.5 0 24.6 0 -0.3 13.6 -0.3 13.6 -24 0.2 -24 0.1 -0.3 34.7 -0.2 34.8 2.2 0.5 c1.3 0.3 17.3 0.4 35.6 0.3 l33.2 -0.3 0 13.8 0 13.7 -51 0 -51 0 0 -106.5z"/>
  <path d="M29.5 238.1 c-2.2 -0.4 -3.1 -1.3 -3.3 -3 -0.3 -2 -0.1 -2.2 1.5 -1.6 1 0.5 5 1 9 1.3 6.2 0.3 7.6 0.1 10.2 -1.7 3.7 -2.7 4.9 -7.3 2.7 -10.7 -1 -1.4 -5.6 -4.3 -11 -6.9 -7.9 -3.8 -9.6 -5 -11.1 -8.1 -4.5 -9.5 2.2 -17.4 14.8 -17.4 5.3 0 11.7 1.6 11.7 2.8 -0.1 2.4 -1.8 3.2 -4.4 2.2 -1.5 -0.5 -5.2 -1 -8.2 -1 -4.5 0 -5.9 0.4 -7.9 2.5 -2.7 2.6 -3.2 6.3 -1.4 9.6 0.6 1.1 5.2 4 10.3 6.3 5.1 2.4 10.1 5.4 11 6.7 2.1 3 2.1 10.7 0 13.8 -3.5 5 -14.1 7.3 -23.9 5.2z"/>
  <path d="M472.6 237.5 c-8.7 -3.1 -13.1 -11 -13.1 -23.5 0 -6.2 0.5 -8.5 2.7 -13 3.9 -7.9 8.1 -10.4 17.7 -10.8 9.7 -0.4 15.2 2.1 19.5 9.1 5.5 8.8 4.6 25.2 -1.8 32.5 -5.8 6.6 -15.9 9 -25 5.7z m16.2 -3.9 c6.5 -3.4 9.2 -9.2 9.1 -19.5 -0.1 -13.8 -5.5 -20.1 -17 -20.1 -11 0 -16.4 6.7 -16.4 20.5 0 9.7 2.8 15.9 8.5 18.7 4.2 2.2 12.1 2.3 15.8 0.4z"/>
  <path d="M234 216 l0 -22 -7.5 0 c-6.5 0 -7.5 -0.2 -7.5 -1.8 0 -1.6 1.4 -1.8 17.5 -1.9 16.5 0 17.5 0.1 17.5 1.8 0 1.7 -0.8 1.9 -7.5 1.9 l-7.5 0 0 22 0 22 -2.5 0 -2.5 0 0 -22z"/>
  <path d="M694 214 c0 -23.3 0.1 -24 2 -24 1.9 0 2 0.7 2 12 0 6.6 0.4 12 0.9 12 0.5 0 5.5 -5.1 11.1 -11.2 7.1 -7.8 11.2 -11.5 13.1 -11.9 1.6 -0.4 2.9 -0.4 2.9 -0.2 0 0.3 -4 4.9 -9 10.2 -4.9 5.4 -9 10.1 -9 10.5 0 0.4 2.6 4.2 5.8 8.4 3.2 4.2 7.5 10.1 9.6 13 l3.8 5.2 -2.9 0 c-2.4 0 -3.9 -1.6 -11.1 -11.5 -4.6 -6.3 -8.7 -11.5 -9.1 -11.5 -0.4 0 -1.9 1.3 -3.4 2.8 -2.5 2.6 -2.7 3.4 -2.7 11.5 0 8 -0.2 8.7 -2 8.7 -1.9 0 -2 -0.7 -2 -24z"/>
  <path d="M881.6 214.3 l0.3 -23.8 12.8 0 c11.3 0 12.8 0.2 13.1 1.7 0.3 1.5 -0.9 1.8 -10.5 2 l-10.8 0.3 -0.3 8.3 -0.3 8.2 10.1 0 c9.3 0 10 0.1 10 2 0 1.9 -0.7 2 -10 2 l-10.1 0 0.3 9.8 0.3 9.7 10.8 0.3 c8.6 0.2 10.7 0.6 10.7 1.7 0 1.2 -2.3 1.5 -13.4 1.5 l-13.3 0 0.3 -23.7z"/>
 </g>
</svg>